<svg id="Layer_3" data-name="Layer 3" xmlns="http://www.w3.org/2000/svg" viewBox="0 0 871.74 871.74"><defs><style>.cls-1{fill:#000;}.cls-2{fill:#fff;}</style></defs><circle class="cls-1" cx="687.99" cy="550.55" r="46.5"/><path class="cls-1" d="M745.25,40.74H272.36C162.22,40.74,72.94,130,72.94,240.17V713.06c0,110.14,89.28,199.42,199.42,199.42H745.25c110.14,0,199.43-89.28,199.43-199.42V240.17C944.68,130,855.39,40.74,745.25,40.74ZM363,837.56H252.54v0A109.62,109.62,0,0,1,144,728h63a46.55,46.55,0,0,0,46.5,46.5v0H363ZM252.54,700.85v0A109.62,109.62,0,0,1,144,591.33h0a109.5,109.5,0,0,1,219,.25H300a46.5,46.5,0,0,0-93,0h0a46.55,46.55,0,0,0,46.49,46.25v0H371.07a47.61,47.61,0,0,0,47.56-47.56V482.81h63V590.29A110.69,110.69,0,0,1,371.07,700.85ZM451.16,769a31.5,31.5,0,1,1,31.5-31.5A31.5,31.5,0,0,1,451.16,769Zm142.1-41.54h0A110.69,110.69,0,0,1,482.7,837.63v-63a47.62,47.62,0,0,0,47.56-47.56V482.87h63V637.79H661.8a109.49,109.49,0,1,1,99.12,63H593.26Zm170.3,108.62a109.66,109.66,0,0,1-108-91.34h65.18a46.5,46.5,0,0,0,85.62,0h65.18A109.66,109.66,0,0,1,763.56,836.08Z" transform="translate(-72.94 -40.74)"/><path class="cls-2" d="M871.55,744.74a109.51,109.51,0,0,1-216,0h65.18a46.5,46.5,0,0,0,85.62,0Z" transform="translate(-72.94 -40.74)"/></svg>